# xmcd CD database file
#
# Track frame offsets:
#	150
#	13692
#	29115
#	45355
#	64540
#	91687
#	104917
#	121217
#	130687
#	161952
#	173250
#	189477
#	208142
#	231465
#
# Disc length: 3374 seconds
#
# Revision: 0
# Processed by: cddbd v1.5.1PL0 Copyright (c) Steve Scherf et al.
# Submitted via: CDex 1.51
#
DISCID=bc0d2c0e
DTITLE=Night Orchestra - Night Orchestra
DYEAR=1992
DGENRE=New Age
TTITLE0=Blue Stack Mountain
TTITLE1=First Impressions
TTITLE2=Chinese Box
TTITLE3=Beyond Love
TTITLE4=Child's Dream
TTITLE5=Festival
TTITLE6=The Road North
TTITLE7=Islands of Glass
TTITLE8=Inner Spectrum
TTITLE9=Totem
TTITLE10=Over the Ocean
TTITLE11=Premonition
TTITLE12=Cycles
TTITLE13=Seven Little Mysteries
EXTD=YEAR: 1992
EXTT0=
EXTT1=
EXTT2=
EXTT3=
EXTT4=
EXTT5=
EXTT6=
EXTT7=
EXTT8=
EXTT9=
EXTT10=
EXTT11=
EXTT12=
EXTT13=
PLAYORDER=
